<svg xmlns="http://www.w3.org/2000/svg" xmlns:xlink="http://www.w3.org/1999/xlink"><defs>
<clipPath id="clip0">
<rect width="20" height="20" fill="white"/>
</clipPath>
</defs><symbol id="icon-close" viewBox="0 0 30 30">
<line x1="7.92879" y1="7.92894" x2="22.0709" y2="22.0711" stroke="#16323B" stroke-width="2"/>
<line x1="7.92864" y1="22.0711" x2="22.0708" y2="7.92893" stroke="#16323B" stroke-width="2"/>
</symbol><symbol id="icon-color" viewBox="0 0 20 20">
<rect width="20" height="20" rx="5"/>
</symbol><symbol id="icon-ellipse" viewBox="0 0 15 11">
<path d="M12.089 1.49317C10.7611 0.530273 9.00305 0 7.13889 0C5.27206 0 3.50489 0.529805 2.16283 1.49186C0.768111 2.49164 0 3.83464 0 5.27344C0 6.71224 0.768111 8.05523 2.16283 9.05502C3.50489 10.0171 5.27206 10.5469 7.13889 10.5469C9.00305 10.5469 10.7611 10.0166 12.089 9.0537C13.4646 8.05623 14.2222 6.7137 14.2222 5.27344C14.2222 3.83317 13.4646 2.49064 12.089 1.49317ZM11.6169 8.32945C10.4265 9.1926 8.83619 9.66797 7.13889 9.66797C5.43739 9.66797 3.83656 9.19213 2.63131 8.32813C1.47183 7.49701 0.833333 6.41215 0.833333 5.27344C0.833333 4.13473 1.47183 3.04986 2.63131 2.21874C3.83656 1.35475 5.43739 0.878906 7.13889 0.878906C8.83619 0.878906 10.4265 1.35428 11.6169 2.21742C12.7596 3.046 13.3889 4.1313 13.3889 5.27344C13.3889 6.41558 12.7596 7.50088 11.6169 8.32945Z" fill="#16323B"/>
</symbol><symbol id="icon-fill" viewBox="0 0 20 20">
<g clip-path="url(#clip0)">
<path d="M16.6734 12.7873C16.5094 12.6232 16.2432 12.6232 16.079 12.7873L14.174 14.6926C12.9707 15.9143 12.9707 17.8758 14.174 19.0975L14.1789 19.1022C14.7704 19.6784 15.5637 20.0006 16.3893 20C17.6424 19.9906 18.7679 19.2313 19.2457 18.073C19.7236 16.9145 19.4607 15.5826 18.5787 14.6924L16.6734 12.7873ZM17.9841 18.503C17.1128 19.3743 15.6698 19.3729 14.7658 18.5006C13.8966 17.6286 13.8974 16.1578 14.7682 15.287L16.3762 13.6791L17.9841 15.287C18.8557 16.1586 18.8557 17.6314 17.9841 18.503V18.503Z" fill="#16323B" stroke="#16323B" stroke-width="0.35"/>
<path d="M15.3998 9.56844L9.0666 3.23507V2.30089C9.06118 1.0286 8.02831 0 6.75586 0C5.48357 0 4.4507 1.0286 4.44528 2.30089V5.83729L1.4869 8.79551C0.219863 10.0653 0.219863 12.1211 1.4869 13.3909L4.53182 16.4358C5.80164 17.7027 7.85721 17.7027 9.12703 16.4358L15.3998 10.1629C15.564 9.99883 15.564 9.73265 15.3998 9.56844V9.56844ZM8.5725 8.37119C9.09944 8.37119 9.52672 8.79846 9.52672 9.32541C9.52672 9.85252 9.09944 10.2798 8.5725 10.2798C8.04539 10.2798 7.61828 9.85252 7.61828 9.32541C7.61894 8.79879 8.04572 8.37185 8.5725 8.37119ZM5.28586 2.30106C5.29013 1.49233 5.94697 0.838942 6.75586 0.838942C7.56459 0.838942 8.22142 1.49233 8.22569 2.30106V2.43554C8.06723 2.36575 7.88217 2.40057 7.75967 2.5229L5.28586 4.9967V2.30106ZM8.5326 15.8412C7.59135 16.7805 6.0675 16.7805 5.12625 15.8412L2.08133 12.7963C1.14222 11.855 1.14222 10.3312 2.08133 9.38994L8.05688 3.41439L8.22569 3.58336V7.56427C7.33305 7.73965 6.71251 8.55494 6.78131 9.46219C6.85028 10.3693 7.58659 11.0816 8.49548 11.1204C9.40454 11.159 10.1988 10.5118 10.3445 9.61376C10.4901 8.7157 9.94101 7.85065 9.06644 7.60007V4.42411L14.508 9.86566L8.5326 15.8412Z" fill="#16323B" stroke="#16323B" stroke-width="0.35"/>
</g>

</symbol><symbol id="icon-line" viewBox="0 0 15 15">
<path d="M14.0595 0.171628C13.8426 -0.0572095 13.4908 -0.0572095 13.2738 0.171628L0.162729 13.9997C-0.054243 14.2286 -0.054243 14.5996 0.162729 14.8284C0.271201 14.9428 0.413396 15 0.555562 15C0.697729 15 0.839923 14.9428 0.948423 14.8284L14.0595 1.00026C14.2765 0.771452 14.2765 0.400466 14.0595 0.171628Z" fill="#16323B"/>
</symbol><symbol id="icon-new" viewBox="0 0 20 20">
<line x1="10" x2="10" y2="20" stroke="#16323B" stroke-width="2"/>
<line y1="10" x2="20" y2="10" stroke="#16323B" stroke-width="2"/>
</symbol><symbol id="icon-pencil" viewBox="0 0 20 20">
<path d="M19.4933 3.95502L16.6183 1.08002C16.567 1.02878 16.4975 1 16.425 1C16.3525 1 16.283 1.02878 16.2317 1.08002L2.95045 14.3613C2.94383 14.3685 2.93762 14.3761 2.93186 14.3841C2.9278 14.3891 2.92342 14.3936 2.91967 14.3989C2.90768 14.4159 2.89767 14.4342 2.88983 14.4535L1.80873 17.1977V17.1986L1.01905 19.2C0.999507 19.2496 0.994878 19.3038 1.00573 19.356C1.01658 19.4082 1.04244 19.4561 1.08013 19.4938C1.11782 19.5315 1.1657 19.5573 1.21789 19.5682C1.27008 19.579 1.3243 19.5744 1.37389 19.5549L3.3753 18.7655L6.11889 17.6835C6.13813 17.6756 6.15642 17.6656 6.17342 17.6536C6.17873 17.6499 6.18327 17.6455 6.18905 17.6414C6.19692 17.6356 6.20448 17.6294 6.2117 17.6228L15.857 7.97783L19.4925 4.34221C19.518 4.31686 19.5383 4.28673 19.5521 4.25353C19.566 4.22034 19.5731 4.18474 19.5732 4.14878C19.5733 4.11281 19.5663 4.07718 19.5525 4.04393C19.5388 4.01069 19.5187 3.98047 19.4933 3.95502ZM15.664 7.39752L13.1764 4.90986L13.9548 4.13096L16.4423 6.61846L15.664 7.39752ZM6.01936 17.0422L5.47248 16.4953L14.73 7.2369L15.2769 7.78377L6.01936 17.0422ZM4.46561 15.4885L13.7242 6.23049L14.3434 6.84971L5.08545 16.1083L4.46561 15.4885ZM3.5317 14.5546L12.7897 5.29658L13.3365 5.84346L4.07905 15.1019L3.5317 14.5546ZM2.16342 17.7889L2.78483 18.4103L1.75873 18.815L2.16342 17.7889ZM3.33936 18.1916L2.38217 17.2344L3.24655 15.0425L3.8853 15.6813L4.89092 16.6869L5.52967 17.3256L3.33936 18.1916ZM16.829 6.23252L14.3414 3.74486L16.4256 1.6608L18.9133 4.1483L16.829 6.23252Z" fill="#16323B" stroke="#16323B" stroke-width="0.2"/>
</symbol><symbol id="icon-rect" viewBox="0 0 15 11">
<path d="M13.8056 0H0.416667C0.186556 0 0 0.196758 0 0.439453V10.1074C0 10.3501 0.186556 10.5469 0.416667 10.5469H13.8056C14.0357 10.5469 14.2222 10.3501 14.2222 10.1074V0.439453C14.2222 0.196758 14.0357 0 13.8056 0ZM13.3889 9.66797H0.833333V0.878906H13.3889V9.66797Z" fill="#16323B"/>
</symbol><symbol id="icon-redo" viewBox="0 0 20 20">
<path d="M14.4252 11.4511L18.097 7.24786L14.4252 3.04465C14.1284 2.70462 14.163 2.18825 14.5031 1.89126C14.8431 1.59454 15.3592 1.62942 15.6565 1.96919L19.7981 6.71024C20.0673 7.01813 20.0673 7.47782 19.7981 7.78571L15.6564 12.5268C15.4946 12.7115 15.2682 12.8064 15.0404 12.8064C14.8496 12.8064 14.6581 12.7399 14.5031 12.6045C14.163 12.3075 14.1282 11.7911 14.4252 11.4511Z" fill="#16323B"/>
<path d="M5.94024 6.43042H19.1826C19.6341 6.43042 20 6.79632 20 7.24784C20 7.69933 19.6341 8.06526 19.1826 8.06526H5.94024C3.56617 8.06526 1.63484 9.99655 1.63484 12.3704C1.63484 14.7442 3.56617 16.6755 5.94024 16.6755H18.0927C18.5441 16.6755 18.9101 17.0414 18.9101 17.4929C18.9101 17.9444 18.5441 18.3103 18.0927 18.3103H5.94024C2.66508 18.3103 0 15.6455 0 12.3704C0 9.09523 2.6648 6.43042 5.94024 6.43042Z" fill="#16323B"/>
</symbol><symbol id="icon-select" viewBox="0 0 12 17">
<path d="M1.4353 15.9781C1.53529 16.0218 1.65032 15.999 1.72848 15.9201L4.86616 12.7494L6.19773 15.7655C6.26124 15.9096 6.42341 15.9719 6.56002 15.9048L8.47569 14.9641C8.6123 14.8969 8.67142 14.7259 8.60791 14.582L7.27633 11.5658L11.5969 11.074C11.7046 11.0618 11.7951 10.9834 11.8277 10.8746C11.8602 10.7658 11.8287 10.6468 11.7472 10.5716L1.45234 1.07121C1.37112 0.996224 1.25555 0.978811 1.15769 1.02684C1.05983 1.075 0.99805 1.17934 1.00005 1.29322L1.26727 15.718C1.2694 15.8322 1.3353 15.9343 1.4353 15.9781V15.9781ZM10.92 10.5724L6.83922 11.0371C6.75174 11.047 6.67412 11.1008 6.63098 11.1817C6.58771 11.2625 6.58411 11.3603 6.62126 11.4444L7.99837 14.5639L6.57692 15.2621L5.19995 12.1425C5.1628 12.0584 5.08957 11.9983 5.00303 11.9812C4.91662 11.964 4.82768 11.992 4.76417 12.0561L1.80051 15.051L1.55739 1.93244L10.92 10.5724Z" fill="#16323B" stroke="#16323B" stroke-width="0.2"/>
</symbol><symbol id="icon-stroke" viewBox="0 0 20 20">
<path d="M14.1176 5.88235V0H0V14.1176H5.88235V20H20V5.88235H14.1176ZM1.17647 12.9412V1.17647H12.9412V5.88235H5.88235V12.9412H1.17647ZM18.8235 18.8235H7.05882C7.05882 18.408 7.05882 7.47173 7.05882 7.05882H18.8235V18.8235Z" fill="#16323B"/>
<path d="M8.23535 17.6471H17.6471V8.23529H8.23535V17.6471ZM9.41182 9.41176H16.4706V16.4706H9.41182V9.41176Z" fill="#16323B"/>
</symbol><symbol id="icon-text" viewBox="0 0 20 20">
<path d="M18.6957 6.95652H9.56522V4.34783H13.4783C14.1974 4.34783 14.7826 3.76217 14.7826 3.04348V1.30435C14.7826 0.585217 14.1974 0 13.4765 0C13.3865 0 1.30435 0 1.30435 0C1.30435 0 1.30435 0 1.30391 0C0.955652 0 0.628261 0.135652 0.382174 0.381739C0.136087 0.627826 0 0.956087 0 1.30435V3.04348C0 3.76261 0.585217 4.34783 1.30435 4.34783H5.21739V16.9565C5.21739 17.6757 5.80261 18.2609 6.52174 18.2609H8.26087C8.98 18.2609 9.56522 17.6757 9.56522 16.9565V13.4783C9.56522 13.2383 9.37087 13.0435 9.13043 13.0435C8.89 13.0435 8.69565 13.2383 8.69565 13.4783V16.9565C8.69565 17.1965 8.50087 17.3913 8.26087 17.3913H6.52174C6.28174 17.3913 6.08696 17.1961 6.08696 16.9565V3.91304C6.08696 3.67304 5.89261 3.47826 5.65217 3.47826H1.30435C1.06435 3.47826 0.869565 3.28304 0.869565 3.04348V1.30435C0.869565 1.18826 0.914783 1.07913 0.996956 0.996956C1.0787 0.914783 1.18783 0.869565 1.30435 0.869565H11.5761C12.5791 0.869565 13.1513 0.869565 13.4783 0.834783V0.869565C13.7183 0.869565 13.913 1.06478 13.913 1.30435V3.04348C13.913 3.28304 13.7178 3.47826 13.4783 3.47826H9.13043C8.89 3.47826 8.69565 3.67304 8.69565 3.91304V7.03652C8.19087 7.21652 7.82609 7.69478 7.82609 8.26087V10C7.82609 10.7191 8.4113 11.3043 9.13043 11.3043H11.7391V18.6957C11.7391 19.4148 12.3243 20 13.0435 20H14.7826C15.5017 20 16.087 19.4148 16.087 18.6957V11.3043H18.6957C19.4148 11.3043 20 10.7191 20 10V8.26087C20 7.54174 19.4148 6.95652 18.6957 6.95652ZM19.1304 10C19.1304 10.2396 18.9357 10.4348 18.6957 10.4348H15.6522C15.4117 10.4348 15.2174 10.6296 15.2174 10.8696V18.6957C15.2174 18.9352 15.0226 19.1304 14.7826 19.1304H13.0435C12.8035 19.1304 12.6087 18.9352 12.6087 18.6957V10.8696C12.6087 10.6296 12.4143 10.4348 12.1739 10.4348H9.13043C8.89043 10.4348 8.69565 10.2396 8.69565 10V8.26087C8.69565 8.0213 8.89043 7.82609 9.13043 7.82609H18.6957C18.9357 7.82609 19.1304 8.0213 19.1304 8.26087V10Z" fill="#16323B"/>
</symbol><symbol id="icon-undo" viewBox="0 0 20 20">
<path d="M5.57484 11.4511L1.90297 7.24786L5.57484 3.04465C5.87156 2.70462 5.83695 2.18825 5.49691 1.89126C5.15687 1.59454 4.64078 1.62942 4.34352 1.96919L0.201914 6.71024C-0.0673047 7.01813 -0.0673047 7.47782 0.201914 7.78571L4.34355 12.5268C4.50539 12.7115 4.73184 12.8064 4.95961 12.8064C5.15035 12.8064 5.34187 12.7399 5.49691 12.6045C5.83699 12.3075 5.87184 11.7911 5.57484 11.4511Z" fill="#16323B"/>
<path d="M14.0598 6.43042H0.817422C0.365938 6.43042 0 6.79632 0 7.24784C0 7.69933 0.365938 8.06526 0.817422 8.06526H14.0598C16.4338 8.06526 18.3652 9.99655 18.3652 12.3704C18.3652 14.7442 16.4338 16.6755 14.0598 16.6755H1.90734C1.45586 16.6755 1.08992 17.0414 1.08992 17.4929C1.08992 17.9444 1.45586 18.3103 1.90734 18.3103H14.0598C17.3349 18.3103 20 15.6455 20 12.3704C20 9.09523 17.3352 6.43042 14.0598 6.43042Z" fill="#16323B"/>
</symbol></svg>