<svg width="15" height="11" viewBox="0 0 15 11" fill="none" xmlns="http://www.w3.org/2000/svg">
<path d="M12.089 1.49317C10.7611 0.530273 9.00305 0 7.13889 0C5.27206 0 3.50489 0.529805 2.16283 1.49186C0.768111 2.49164 0 3.83464 0 5.27344C0 6.71224 0.768111 8.05523 2.16283 9.05502C3.50489 10.0171 5.27206 10.5469 7.13889 10.5469C9.00305 10.5469 10.7611 10.0166 12.089 9.0537C13.4646 8.05623 14.2222 6.7137 14.2222 5.27344C14.2222 3.83317 13.4646 2.49064 12.089 1.49317ZM11.6169 8.32945C10.4265 9.1926 8.83619 9.66797 7.13889 9.66797C5.43739 9.66797 3.83656 9.19213 2.63131 8.32813C1.47183 7.49701 0.833333 6.41215 0.833333 5.27344C0.833333 4.13473 1.47183 3.04986 2.63131 2.21874C3.83656 1.35475 5.43739 0.878906 7.13889 0.878906C8.83619 0.878906 10.4265 1.35428 11.6169 2.21742C12.7596 3.046 13.3889 4.1313 13.3889 5.27344C13.3889 6.41558 12.7596 7.50088 11.6169 8.32945Z" fill="#16323B"/>
</svg>
