<svg width="20" height="20" viewBox="0 0 20 20" fill="none" xmlns="http://www.w3.org/2000/svg">
<path d="M18.6957 6.95652H9.56522V4.34783H13.4783C14.1974 4.34783 14.7826 3.76217 14.7826 3.04348V1.30435C14.7826 0.585217 14.1974 0 13.4765 0C13.3865 0 1.30435 0 1.30435 0C1.30435 0 1.30435 0 1.30391 0C0.955652 0 0.628261 0.135652 0.382174 0.381739C0.136087 0.627826 0 0.956087 0 1.30435V3.04348C0 3.76261 0.585217 4.34783 1.30435 4.34783H5.21739V16.9565C5.21739 17.6757 5.80261 18.2609 6.52174 18.2609H8.26087C8.98 18.2609 9.56522 17.6757 9.56522 16.9565V13.4783C9.56522 13.2383 9.37087 13.0435 9.13043 13.0435C8.89 13.0435 8.69565 13.2383 8.69565 13.4783V16.9565C8.69565 17.1965 8.50087 17.3913 8.26087 17.3913H6.52174C6.28174 17.3913 6.08696 17.1961 6.08696 16.9565V3.91304C6.08696 3.67304 5.89261 3.47826 5.65217 3.47826H1.30435C1.06435 3.47826 0.869565 3.28304 0.869565 3.04348V1.30435C0.869565 1.18826 0.914783 1.07913 0.996956 0.996956C1.0787 0.914783 1.18783 0.869565 1.30435 0.869565H11.5761C12.5791 0.869565 13.1513 0.869565 13.4783 0.834783V0.869565C13.7183 0.869565 13.913 1.06478 13.913 1.30435V3.04348C13.913 3.28304 13.7178 3.47826 13.4783 3.47826H9.13043C8.89 3.47826 8.69565 3.67304 8.69565 3.91304V7.03652C8.19087 7.21652 7.82609 7.69478 7.82609 8.26087V10C7.82609 10.7191 8.4113 11.3043 9.13043 11.3043H11.7391V18.6957C11.7391 19.4148 12.3243 20 13.0435 20H14.7826C15.5017 20 16.087 19.4148 16.087 18.6957V11.3043H18.6957C19.4148 11.3043 20 10.7191 20 10V8.26087C20 7.54174 19.4148 6.95652 18.6957 6.95652ZM19.1304 10C19.1304 10.2396 18.9357 10.4348 18.6957 10.4348H15.6522C15.4117 10.4348 15.2174 10.6296 15.2174 10.8696V18.6957C15.2174 18.9352 15.0226 19.1304 14.7826 19.1304H13.0435C12.8035 19.1304 12.6087 18.9352 12.6087 18.6957V10.8696C12.6087 10.6296 12.4143 10.4348 12.1739 10.4348H9.13043C8.89043 10.4348 8.69565 10.2396 8.69565 10V8.26087C8.69565 8.0213 8.89043 7.82609 9.13043 7.82609H18.6957C18.9357 7.82609 19.1304 8.0213 19.1304 8.26087V10Z" fill="#16323B"/>
</svg>
