<svg width="30" height="30" viewBox="0 0 30 30" fill="none" xmlns="http://www.w3.org/2000/svg">
<path d="M23.9646 9.39785H11.9676L9.35165 7.34554H0V26.2393C0 27.7622 1.23792 29.0335 2.76015 29.0733L23.5327 29.085H23.5344C24.7925 29.0849 25.9012 28.2371 26.2309 27.0227L29.9759 13.2248H23.9646V9.39785ZM2.97438 27.3122L2.79462 27.3121V27.3123C2.23337 27.2916 1.76124 26.8027 1.76124 26.2393V9.10677H8.74326L11.3592 11.1591H22.2033V13.2248H7.86123L4.33441 26.2072C4.16339 26.8368 3.61412 27.277 2.97438 27.3122ZM27.6729 14.9861L24.5311 26.5615C24.4092 27.0104 23.9994 27.3238 23.5343 27.3238C23.5341 27.3238 23.5338 27.3238 23.5337 27.3238L5.78391 27.3138C5.88806 27.1116 5.97242 26.8959 6.03412 26.669L9.20793 14.9861H27.6729Z" fill="#16323B" fill-opacity="0.9"/>
<path d="M21.6426 2.6762C23.6089 2.6762 25.2704 4.00147 25.7839 5.80527L24.7398 4.99422L23.6595 6.38507L26.8295 8.8474L29.9994 6.38507L28.919 4.99422L27.6295 5.9959C27.1569 3.11786 24.6524 0.914902 21.6426 0.914902C18.2971 0.914902 15.5752 3.63672 15.5752 6.98231H17.3364C17.3365 4.60793 19.2682 2.6762 21.6426 2.6762Z" fill="#16323B" fill-opacity="0.9"/>
<path d="M11.0078 25.5486L11.0096 23.7874L21.6426 23.798L21.6409 25.5593L11.0078 25.5486Z" fill="#16323B" fill-opacity="0.9"/>
</svg>
