<svg width="12" height="17" viewBox="0 0 12 17" fill="none" xmlns="http://www.w3.org/2000/svg">
<path d="M1.4353 15.9781C1.53529 16.0218 1.65032 15.999 1.72848 15.9201L4.86616 12.7494L6.19773 15.7655C6.26124 15.9096 6.42341 15.9719 6.56002 15.9048L8.47569 14.9641C8.6123 14.8969 8.67142 14.7259 8.60791 14.582L7.27633 11.5658L11.5969 11.074C11.7046 11.0618 11.7951 10.9834 11.8277 10.8746C11.8602 10.7658 11.8287 10.6468 11.7472 10.5716L1.45234 1.07121C1.37112 0.996224 1.25555 0.978811 1.15769 1.02684C1.05983 1.075 0.99805 1.17934 1.00005 1.29322L1.26727 15.718C1.2694 15.8322 1.3353 15.9343 1.4353 15.9781V15.9781ZM10.92 10.5724L6.83922 11.0371C6.75174 11.047 6.67412 11.1008 6.63098 11.1817C6.58771 11.2625 6.58411 11.3603 6.62126 11.4444L7.99837 14.5639L6.57692 15.2621L5.19995 12.1425C5.1628 12.0584 5.08957 11.9983 5.00303 11.9812C4.91662 11.964 4.82768 11.992 4.76417 12.0561L1.80051 15.051L1.55739 1.93244L10.92 10.5724Z" fill="#16323B" stroke="#16323B" stroke-width="0.2"/>
</svg>
