<svg width="20" height="20" viewBox="0 0 20 20" fill="none" xmlns="http://www.w3.org/2000/svg">
<path d="M19.4933 3.95502L16.6183 1.08002C16.567 1.02878 16.4975 1 16.425 1C16.3525 1 16.283 1.02878 16.2317 1.08002L2.95045 14.3613C2.94383 14.3685 2.93762 14.3761 2.93186 14.3841C2.9278 14.3891 2.92342 14.3936 2.91967 14.3989C2.90768 14.4159 2.89767 14.4342 2.88983 14.4535L1.80873 17.1977V17.1986L1.01905 19.2C0.999507 19.2496 0.994878 19.3038 1.00573 19.356C1.01658 19.4082 1.04244 19.4561 1.08013 19.4938C1.11782 19.5315 1.1657 19.5573 1.21789 19.5682C1.27008 19.579 1.3243 19.5744 1.37389 19.5549L3.3753 18.7655L6.11889 17.6835C6.13813 17.6756 6.15642 17.6656 6.17342 17.6536C6.17873 17.6499 6.18327 17.6455 6.18905 17.6414C6.19692 17.6356 6.20448 17.6294 6.2117 17.6228L15.857 7.97783L19.4925 4.34221C19.518 4.31686 19.5383 4.28673 19.5521 4.25353C19.566 4.22034 19.5731 4.18474 19.5732 4.14878C19.5733 4.11281 19.5663 4.07718 19.5525 4.04393C19.5388 4.01069 19.5187 3.98047 19.4933 3.95502ZM15.664 7.39752L13.1764 4.90986L13.9548 4.13096L16.4423 6.61846L15.664 7.39752ZM6.01936 17.0422L5.47248 16.4953L14.73 7.2369L15.2769 7.78377L6.01936 17.0422ZM4.46561 15.4885L13.7242 6.23049L14.3434 6.84971L5.08545 16.1083L4.46561 15.4885ZM3.5317 14.5546L12.7897 5.29658L13.3365 5.84346L4.07905 15.1019L3.5317 14.5546ZM2.16342 17.7889L2.78483 18.4103L1.75873 18.815L2.16342 17.7889ZM3.33936 18.1916L2.38217 17.2344L3.24655 15.0425L3.8853 15.6813L4.89092 16.6869L5.52967 17.3256L3.33936 18.1916ZM16.829 6.23252L14.3414 3.74486L16.4256 1.6608L18.9133 4.1483L16.829 6.23252Z" fill="#16323B" stroke="#16323B" stroke-width="0.2"/>
</svg>
