<svg width="19" height="19" viewBox="0 0 19 19" fill="none" xmlns="http://www.w3.org/2000/svg">
<path d="M16.8893 0.521C15.7235 0.521 14.7783 1.46691 14.7783 2.63365C14.7783 3.80064 15.7235 4.74642 16.8893 4.74642C18.0553 4.74642 19.0005 3.80064 19.0005 2.63365C19.0005 1.46691 18.0553 0.521 16.8893 0.521Z" fill="#16323B"/>
<path d="M2.11111 18.4791C3.27705 18.4791 4.22222 17.5332 4.22222 16.3664C4.22222 15.1995 3.27705 14.2537 2.11111 14.2537C0.945177 14.2537 0 15.1995 0 16.3664C0 17.5332 0.945177 18.4791 2.11111 18.4791Z" fill="#16323B"/>
<path d="M11.4318 6.13393L14.5174 4.59007C14.2259 4.237 14.0122 3.81779 13.901 3.35897L10.8154 4.90283C11.1069 5.25584 11.3206 5.67505 11.4318 6.13393Z" fill="#16323B"/>
<path d="M10.1861 16.0693C9.90862 15.6909 9.71575 15.2471 9.63482 14.7656L5.06836 15.5272C5.1441 15.7941 5.18556 16.0753 5.18556 16.3662C5.18556 16.5524 5.16803 16.7344 5.13623 16.9115L10.1861 16.0693Z" fill="#16323B"/>
<path d="M11.867 11.2835L10.4634 9.17636C10.1164 9.47941 9.70136 9.70593 9.24414 9.82921L10.6477 11.9362C10.9946 11.6333 11.4098 11.4069 11.867 11.2835Z" fill="#16323B"/>
<path d="M12.6668 12.141C11.5009 12.141 10.5557 13.0867 10.5557 14.2536C10.5557 15.4202 11.5009 16.3662 12.6668 16.3662C13.8327 16.3662 14.7781 15.4202 14.7781 14.2536C14.7781 13.0867 13.8327 12.141 12.6668 12.141Z" fill="#16323B"/>
<path d="M8.44405 8.97178C9.60995 8.97178 10.5551 8.02591 10.5551 6.85913C10.5551 5.69235 9.60995 4.74648 8.44405 4.74648C7.27816 4.74648 6.33301 5.69235 6.33301 6.85913C6.33301 8.02591 7.27816 8.97178 8.44405 8.97178Z" fill="#16323B"/>
</svg>
