<svg width="35" height="35" viewBox="0 0 35 35" fill="none" xmlns="http://www.w3.org/2000/svg">
<g clip-path="url(#clip0)">
<path d="M13.1245 16.7713C9.10401 16.7713 5.83301 13.5006 5.83301 9.48003C5.83301 5.45951 9.10401 2.18851 13.1245 2.18851C17.1451 2.18851 20.4161 5.45951 20.4161 9.48003C20.4161 13.5006 17.1451 16.7713 13.1245 16.7713ZM13.1245 4.37594C10.3101 4.37594 8.02044 6.66537 8.02044 9.48003C8.02044 12.2944 10.3101 14.5839 13.1245 14.5839C15.9389 14.5839 18.2286 12.2944 18.2286 9.48003C18.2286 6.66537 15.9389 4.37594 13.1245 4.37594Z" fill="#16323B" fill-opacity="0.9"/>
<path d="M25.1555 32.8126H1.09372C0.489983 32.8126 0 32.3226 0 31.7188V26.6147C0 22.7955 3.10758 19.688 6.92678 19.688H19.3224C23.1416 19.688 26.2492 22.7955 26.2492 26.6147V31.7188C26.2492 32.3226 25.7592 32.8126 25.1555 32.8126ZM2.18743 30.6251H24.0617V26.6147C24.0617 24.0017 21.9355 21.8754 19.3224 21.8754H6.92678C4.31372 21.8754 2.18743 24.0017 2.18743 26.6147V30.6251Z" fill="#16323B" fill-opacity="0.9"/>
<path d="M33.9051 17.136H21.5097C20.906 17.136 20.416 16.6461 20.416 16.0423C20.416 15.4386 20.906 14.9486 21.5097 14.9486H33.9051C34.5088 14.9486 34.9988 15.4386 34.9988 16.0423C34.9988 16.6461 34.5088 17.136 33.9051 17.136Z" fill="#16323B" fill-opacity="0.9"/>
<path d="M28.072 22.9691C27.7919 22.9691 27.512 22.8626 27.2989 22.6484C26.8717 22.2209 26.8717 21.5283 27.2989 21.101L32.3592 16.0407L27.2989 10.9804C26.8717 10.5532 26.8717 9.86054 27.2989 9.43331C27.7262 9.00608 28.4188 9.00608 28.8463 9.43331L34.6794 15.2664C35.1066 15.6936 35.1066 16.3865 34.6794 16.8138L28.8463 22.6468C28.6319 22.8626 28.3518 22.9691 28.072 22.9691Z" fill="#16323B" fill-opacity="0.9"/>
</g>
<defs>
<clipPath id="clip0">
<rect width="35" height="35" fill="white"/>
</clipPath>
</defs>
</svg>
