<svg width="28" height="28" viewBox="0 0 28 28" fill="none" xmlns="http://www.w3.org/2000/svg">
<path d="M27.8136 5.27733L22.7227 0.186435C22.6034 0.0671165 22.4418 0 22.2727 0H2.54548C1.14223 0 0 1.14158 0 2.54548V25.4546C0 26.8584 1.14223 28.0001 2.54548 28.0001H25.4546C26.8578 28.0001 28.0001 26.8585 28.0001 25.4546V5.72728C28 5.55826 27.9329 5.39665 27.8136 5.27733ZM6.36366 1.27271H20.3637V8.90908C20.3637 9.61067 19.7932 10.1818 19.091 10.1818H7.63637C6.93412 10.1818 6.36366 9.61067 6.36366 8.90908V1.27271ZM22.9091 26.7273H5.09089V15.2727H22.9091V26.7273ZM26.7273 25.4546C26.7273 26.1562 26.1568 26.7273 25.4546 26.7273H24.1819V14.6364C24.1819 14.2846 23.8972 14 23.5455 14H4.45457C4.10282 14 3.81818 14.2846 3.81818 14.6364V26.7273H2.54548C1.84323 26.7273 1.27277 26.1562 1.27277 25.4546V2.54548C1.27277 1.84388 1.84329 1.27277 2.54548 1.27277H5.09095V8.90914C5.09089 10.313 6.23313 11.4546 7.63637 11.4546H19.0909C20.4942 11.4546 21.6364 10.313 21.6364 8.90908V1.27271H22.0093L26.7273 5.99079V25.4546Z" fill="#16323B" fill-opacity="0.9"/>
<path d="M15.9088 8.90907H18.4543C18.8061 8.90907 19.0907 8.62444 19.0907 8.27269V3.18179C19.0907 2.83004 18.8061 2.54541 18.4543 2.54541H15.9088C15.5571 2.54541 15.2725 2.83004 15.2725 3.18179V8.27269C15.2725 8.62444 15.5571 8.90907 15.9088 8.90907ZM16.5452 3.81818H17.8179V7.63636H16.5452V3.81818Z" fill="#16323B" fill-opacity="0.9"/>
</svg>
