<svg width="20" height="20" viewBox="0 0 20 20" fill="none" xmlns="http://www.w3.org/2000/svg">
<g clip-path="url(#clip0)">
<path d="M16.6734 12.7873C16.5094 12.6232 16.2432 12.6232 16.079 12.7873L14.174 14.6926C12.9707 15.9143 12.9707 17.8758 14.174 19.0975L14.1789 19.1022C14.7704 19.6784 15.5637 20.0006 16.3893 20C17.6424 19.9906 18.7679 19.2313 19.2457 18.073C19.7236 16.9145 19.4607 15.5826 18.5787 14.6924L16.6734 12.7873ZM17.9841 18.503C17.1128 19.3743 15.6698 19.3729 14.7658 18.5006C13.8966 17.6286 13.8974 16.1578 14.7682 15.287L16.3762 13.6791L17.9841 15.287C18.8557 16.1586 18.8557 17.6314 17.9841 18.503V18.503Z" fill="#16323B" stroke="#16323B" stroke-width="0.35"/>
<path d="M15.3998 9.56844L9.0666 3.23507V2.30089C9.06118 1.0286 8.02831 0 6.75586 0C5.48357 0 4.4507 1.0286 4.44528 2.30089V5.83729L1.4869 8.79551C0.219863 10.0653 0.219863 12.1211 1.4869 13.3909L4.53182 16.4358C5.80164 17.7027 7.85721 17.7027 9.12703 16.4358L15.3998 10.1629C15.564 9.99883 15.564 9.73265 15.3998 9.56844V9.56844ZM8.5725 8.37119C9.09944 8.37119 9.52672 8.79846 9.52672 9.32541C9.52672 9.85252 9.09944 10.2798 8.5725 10.2798C8.04539 10.2798 7.61828 9.85252 7.61828 9.32541C7.61894 8.79879 8.04572 8.37185 8.5725 8.37119ZM5.28586 2.30106C5.29013 1.49233 5.94697 0.838942 6.75586 0.838942C7.56459 0.838942 8.22142 1.49233 8.22569 2.30106V2.43554C8.06723 2.36575 7.88217 2.40057 7.75967 2.5229L5.28586 4.9967V2.30106ZM8.5326 15.8412C7.59135 16.7805 6.0675 16.7805 5.12625 15.8412L2.08133 12.7963C1.14222 11.855 1.14222 10.3312 2.08133 9.38994L8.05688 3.41439L8.22569 3.58336V7.56427C7.33305 7.73965 6.71251 8.55494 6.78131 9.46219C6.85028 10.3693 7.58659 11.0816 8.49548 11.1204C9.40454 11.159 10.1988 10.5118 10.3445 9.61376C10.4901 8.7157 9.94101 7.85065 9.06644 7.60007V4.42411L14.508 9.86566L8.5326 15.8412Z" fill="#16323B" stroke="#16323B" stroke-width="0.35"/>
</g>
<defs>
<clipPath id="clip0">
<rect width="20" height="20" fill="white"/>
</clipPath>
</defs>
</svg>
